<svg width="814" height="546" viewBox="0 0 814 546" fill="none" xmlns="http://www.w3.org/2000/svg">
<path d="M802.126 545.85H444.811C441.919 545.847 439.146 544.696 437.1 542.651C435.055 540.605 433.905 537.832 433.901 534.94V282.358C433.905 279.466 435.055 276.693 437.1 274.647C439.146 272.602 441.919 271.452 444.811 271.448H802.126C805.019 271.452 807.792 272.602 809.837 274.647C811.882 276.693 813.033 279.466 813.036 282.358V534.94C813.033 537.833 811.882 540.606 809.837 542.651C807.792 544.696 805.018 545.847 802.126 545.85Z" fill="#E6E6E6"/>
<path d="M787.25 286.322H459.691C456.798 286.326 454.023 287.477 451.977 289.523C449.931 291.569 448.78 294.343 448.776 297.237V520.06C448.78 522.954 449.931 525.728 451.977 527.774C454.023 529.82 456.798 530.971 459.691 530.975H787.25C790.143 530.971 792.916 529.819 794.961 527.773C797.006 525.727 798.155 522.953 798.157 520.06V297.237C798.155 294.344 797.006 291.57 794.961 289.524C792.916 287.478 790.143 286.326 787.25 286.322Z" fill="white"/>
<path d="M653.321 392.25C658.757 368.572 643.969 344.971 620.292 339.535C596.615 334.1 573.014 348.887 567.578 372.565C562.142 396.242 576.93 419.843 600.607 425.279C624.285 430.715 647.885 415.927 653.321 392.25Z" fill="#9E616A"/>
<path d="M736.957 489.554C735.339 481.911 731.678 474.85 726.364 469.123C721.049 463.396 714.281 459.218 706.78 457.034L706.747 457.016C705.316 456.311 703.8 455.791 702.237 455.468L649.375 444.652L638.784 433.288L593.718 436.165L589.014 449.237L537.247 472.244L538.106 471.642C535.888 472.531 533.731 473.565 531.648 474.736L531.386 474.853C529.894 475.523 528.508 476.407 527.271 477.478C514.107 486.614 505.409 501.28 505.087 517.632L503.721 530.975H745.748L736.957 489.554Z" fill="#3F3D56"/>
<path d="M658.589 358.831C654.988 347.584 644.452 338.086 632.646 338.388C633.565 335.582 631.994 332.436 629.643 330.65C627.292 328.865 624.318 328.15 621.427 327.548C615.452 326.303 609.225 325.352 603.285 326.755C597.344 328.158 591.715 332.42 590.377 338.375C584.967 333.304 574.962 334.707 571.155 341.071C569.196 344.346 568.919 348.746 571.036 351.921C573.14 355.076 577.124 356.496 580.912 356.675C584.7 356.854 588.45 356.004 592.221 355.608C601.229 354.662 610.743 356.477 618.025 361.863C625.307 367.249 629.96 376.484 628.665 385.448C631.576 383.588 635.769 384.88 637.802 387.673C639.835 390.466 639.996 394.282 639.052 397.605C638.107 400.928 636.19 403.876 634.3 406.768C630.82 412.092 627.339 417.417 623.859 422.741L625.285 423.689C630.535 425.903 636.215 421.764 640.037 417.538C646.483 410.408 651.675 402.238 655.394 393.375C659.959 382.482 662.19 370.079 658.589 358.831Z" fill="#2F2E41"/>
<path d="M468.838 350.26H13.8909C10.208 350.256 6.67727 348.791 4.07314 346.187C1.469 343.583 0.00416863 340.052 0 336.369V14.7727C0.00415541 11.0899 1.46898 7.55912 4.07312 4.95497C6.67726 2.35083 10.208 0.885997 13.8909 0.881836H468.838C472.52 0.886007 476.051 2.35085 478.655 4.95499C481.259 7.55913 482.724 11.0899 482.728 14.7727V336.369C482.724 340.052 481.259 343.583 478.655 346.187C476.051 348.791 472.52 350.256 468.838 350.26Z" fill="#E6E6E6"/>
<path d="M449.897 19.8203H32.8366C29.1523 19.825 25.6203 21.2907 23.0151 23.8959C20.4099 26.5011 18.9442 30.0331 18.9395 33.7174V317.424C18.9442 321.109 20.4098 324.641 23.015 327.246C25.6202 329.851 29.1523 331.317 32.8366 331.321H449.897C453.58 331.316 457.111 329.85 459.715 327.245C462.318 324.639 463.781 321.108 463.784 317.424V33.7174C463.781 30.0342 462.318 26.5024 459.715 23.897C457.111 21.2916 453.58 19.8254 449.897 19.8203Z" fill="white"/>
<path d="M301.375 152.962L300.606 154.348C307.452 137.474 301.226 116.682 289.012 103.959C276.799 91.2351 259.819 85.4184 243.1 83.1107C230.688 81.3977 217.805 81.4472 206.004 85.9935C188.914 92.5771 175.857 107.818 164.955 123.672C159.968 130.924 155.065 139.191 155.562 148.255C156.023 156.666 161.016 163.804 165.105 170.94C169.194 178.076 172.608 186.93 169.674 194.718C167.925 199.36 164.229 202.703 161.23 206.499C158.232 210.296 155.765 215.428 157.213 220.192C158.385 224.046 161.911 226.58 165.536 227.425C169.162 228.27 172.922 227.718 176.594 227.163L271.894 212.765C278.37 211.787 284.513 209.257 289.799 205.391C295.086 201.525 299.359 196.438 302.255 190.564C305.151 184.69 306.583 178.202 306.43 171.655C306.277 165.107 304.542 158.694 301.375 152.962Z" fill="#2F2E41"/>
<path d="M230.489 212.101C256.223 212.101 277.083 191.24 277.083 165.507C277.083 139.774 256.223 118.913 230.489 118.913C204.756 118.913 183.896 139.774 183.896 165.507C183.896 191.24 204.756 212.101 230.489 212.101Z" fill="#FFB9B9"/>
<path d="M346.707 270.985C343.692 264.378 338.936 258.715 332.948 254.604C326.961 250.492 319.968 248.087 312.719 247.645L299.733 246.859L299.765 246.995L266.754 227.138C267.566 228.067 213.059 230.014 213.059 230.014L192.835 247.462L184.353 247.975C177.103 248.417 170.111 250.822 164.123 254.934C158.136 259.045 153.38 264.708 150.365 271.315L122.822 331.651H177.719L178.992 326.17C180.378 327.858 181.721 329.575 183.022 331.321H374.249L346.707 270.985Z" fill="#3F3D56"/>
<path d="M274.685 122.262C273.482 115.899 266.993 112.989 261.433 111.579C245.305 107.464 228.528 106.543 212.047 108.867C200.033 110.58 187.733 114.358 179.015 123.736C172.216 131.051 168.103 141.528 167.782 152.347C167.596 158.652 168.723 165.213 171.86 170.523C174.997 175.832 180.345 179.684 185.864 179.549L186.423 181.493C209.817 178.234 231.547 163.678 245.233 142.101C242.664 151.273 237.553 159.531 230.489 165.92C246.283 159.6 260.011 149.02 270.146 135.357C272.913 131.683 275.6 127.103 274.685 122.262Z" fill="#2F2E41"/>
</svg>
