<svg width="259" height="477" viewBox="0 0 259 477" fill="none" xmlns="http://www.w3.org/2000/svg">
<path d="M69.4004 463.299H81.6604L87.4924 416.011L69.3984 416.012L69.4004 463.299Z" fill="#FFB6B6"/>
<path d="M66.2725 459.297L90.4165 459.296C94.4971 459.296 98.4116 460.917 101.297 463.803C104.183 466.688 105.804 470.602 105.804 474.682V475.182L66.2732 475.184L66.2725 459.297Z" fill="#2F2E41"/>
<path d="M111.4 463.299H123.66L129.492 416.011L111.398 416.012L111.4 463.299Z" fill="#FFB6B6"/>
<path d="M108.272 459.297L132.416 459.296H132.417C136.498 459.296 140.412 460.917 143.297 463.803C146.183 466.688 147.804 470.602 147.804 474.682V475.182L108.273 475.184L108.272 459.297Z" fill="#2F2E41"/>
<path d="M158 257L128.02 459L108 457.908L108.497 272.43L158 257Z" fill="#2F2E41"/>
<path d="M77.1667 201L149.917 202.101L158 262.655L108.49 287.978L86.9687 459L67.9466 457.909L61 246.14L77.1667 201Z" fill="#2F2E41"/>
<path d="M120.645 57.4668C132.907 57.4668 142.848 47.526 142.848 35.2634C142.848 23.0009 132.907 13.0601 120.645 13.0601C108.382 13.0601 98.4414 23.0009 98.4414 35.2634C98.4414 47.526 108.382 57.4668 120.645 57.4668Z" fill="#FFB9B9"/>
<path d="M131.038 70.2822L143.858 86.7352L137.802 212.89L90.3679 211.881L82.2939 101.874L92.3859 73.6152L96.0379 67.2822L131.038 70.2822Z" fill="#E4E4E4"/>
<path d="M152.941 134.169L164.043 176.558L152.941 218.946L171.108 243.168L187.256 166.465C187.256 166.465 175.145 103.892 174.135 96.8274C173.126 89.7626 171.108 88.7534 171.108 88.7534L163.034 89.7627L152.941 134.169Z" fill="#2F2E41"/>
<path d="M72.2025 150.317L65.1375 163.438L63.1185 185.641L67.1555 210.872L53.0265 234.085L38.8975 170.502L54.0355 88.7529H60.0915L72.2025 150.317Z" fill="#2F2E41"/>
<path d="M101.443 41.0143L100.917 49.9899C100.917 49.9899 94.4044 35.2632 93.3951 20.1246C92.3859 4.98595 109.543 1.95821 119.635 0.948957C129.728 -0.0602932 146.885 7.00438 146.885 15.0784C146.885 23.1523 128.719 21.1339 121.654 19.1154C114.589 17.0969 111.562 34.254 111.562 34.254L107.525 35.2633L101.443 41.0143Z" fill="#2F2E41"/>
<path d="M155.969 148.299L151.932 186.65L160.006 209.863L165.052 232.066C165.052 232.066 165.052 253.26 144.867 254.27C124.682 255.279 66.1459 253.26 66.1459 253.26C66.1459 253.26 58.0719 252.251 51.0072 236.103C43.9425 219.955 65.1366 204.817 65.1366 204.817L71.1921 183.622L69.1737 157.382L55.0441 88.7534L96.9277 67.0547L107.525 170.502L130.233 70.0824L137.802 75.6333L170.098 88.7534L155.969 148.299Z" fill="#2F2E41"/>
<path d="M257.738 476.136H0V474.03H258.12L257.738 476.136Z" fill="#3F3D56"/>
</svg>
